<svg id="remove-symbol" xmlns="http://www.w3.org/2000/svg" width="15" height="15" viewBox="0 0 15 15">
  <path id="Path_12" data-name="Path 12" d="M10.934,7.5l3.712-3.712A1.168,1.168,0,0,0,15,2.929a1.17,1.17,0,0,0-.354-.859L12.929.353a1.219,1.219,0,0,0-1.717,0L7.5,4.066,3.788.353A1.169,1.169,0,0,0,2.929,0a1.169,1.169,0,0,0-.859.353L.354,2.071A1.169,1.169,0,0,0,0,2.929a1.169,1.169,0,0,0,.354.859L4.066,7.5.354,11.212a1.219,1.219,0,0,0,0,1.717l1.717,1.717A1.169,1.169,0,0,0,2.929,15a1.17,1.17,0,0,0,.859-.354L7.5,10.934l3.712,3.712a1.219,1.219,0,0,0,1.717,0l1.717-1.717a1.219,1.219,0,0,0,0-1.717Z" fill="#eb6b6b"/>
</svg>
