<svg id="instagram" xmlns="http://www.w3.org/2000/svg" width="33" height="33" viewBox="0 0 33 33">
  <g id="Group_23" data-name="Group 23">
    <g id="Group_22" data-name="Group 22">
      <path id="Path_20" data-name="Path 20" d="M24.083,0H8.917A8.927,8.927,0,0,0,0,8.917V24.083A8.927,8.927,0,0,0,8.917,33H24.083A8.927,8.927,0,0,0,33,24.083V8.917A8.927,8.927,0,0,0,24.083,0Zm6.25,24.083a6.258,6.258,0,0,1-6.25,6.25H8.917a6.258,6.258,0,0,1-6.25-6.25V8.917a6.258,6.258,0,0,1,6.25-6.25H24.083a6.258,6.258,0,0,1,6.25,6.25Z" fill="#44423c"/>
    </g>
  </g>
  <g id="Group_25" data-name="Group 25" transform="translate(9.164 9.034)">
    <g id="Group_24" data-name="Group 24">
      <path id="Path_21" data-name="Path 21" d="M156.906,146.486a7.4,7.4,0,1,0-7.335,8.487,7.5,7.5,0,0,0,1.1-.082,7.4,7.4,0,0,0,6.234-8.405Zm-6.625,5.768a4.734,4.734,0,1,1,3.988-5.377A4.7,4.7,0,0,1,150.28,152.254Z" transform="translate(-142.185 -140.171)" fill="#44423c"/>
    </g>
  </g>
  <g id="Group_27" data-name="Group 27" transform="translate(23.509 6.825)">
    <g id="Group_26" data-name="Group 26">
      <path id="Path_22" data-name="Path 22" d="M367.017,106.283a1.333,1.333,0,1,0,.39.943A1.343,1.343,0,0,0,367.017,106.283Z" transform="translate(-364.741 -105.893)" fill="#44423c"/>
    </g>
  </g>
</svg>
