<svg xmlns="http://www.w3.org/2000/svg" width="278.859" height="102" viewBox="0 0 278.859 102">
  <g id="Group_34" data-name="Group 34" transform="translate(-335 -522)">
    <g id="THE_TRUTH" data-name="THE TRUTH" transform="translate(358.314 543.144)">
      <g id="Group_1" data-name="Group 1" transform="translate(0 0)">
        <path id="Path_1" data-name="Path 1" d="M387.3,549.313H376.34V577.3h-2.149V549.313H363v-1.939h24.3Z" transform="translate(-363 -547.374)" fill="#738c91"/>
        <path id="Path_2" data-name="Path 2" d="M421.193,547.374V577.3h-2.15V562.969H400.161V577.3h-2.15V547.374h2.15V561.03h18.882V547.374Z" transform="translate(-369.076 -547.374)" fill="#738c91"/>
        <path id="Path_3" data-name="Path 3" d="M500.055,549.313H489.1V577.3h-2.149V549.313h-10.96v-1.939h24.067Z" transform="translate(-382.609 -547.374)" fill="#738c91"/>
        <path id="Path_4" data-name="Path 4" d="M510.719,577.3V547.374h12.434a7.711,7.711,0,0,1,3.5.8,8.936,8.936,0,0,1,2.761,2.129,10.174,10.174,0,0,1,1.812,2.992,9.114,9.114,0,0,1,.653,3.351,10.116,10.116,0,0,1-.506,3.182,9.36,9.36,0,0,1-1.432,2.761,8.069,8.069,0,0,1-2.235,2.023,7.826,7.826,0,0,1-2.865,1.054L532.3,577.3h-2.487L522.563,566h-9.7v11.3Zm2.149-13.277h10.5a5.448,5.448,0,0,0,2.613-.632A6.619,6.619,0,0,0,528,561.725a7.388,7.388,0,0,0,1.286-2.36,8.545,8.545,0,0,0,.443-2.719,7.413,7.413,0,0,0-.527-2.76,7.8,7.8,0,0,0-1.433-2.34,7.186,7.186,0,0,0-2.107-1.622,5.636,5.636,0,0,0-2.593-.612h-10.2Z" transform="translate(-388.637 -547.374)" fill="#738c91"/>
        <path id="Path_5" data-name="Path 5" d="M555.732,575.529a10.081,10.081,0,0,0,5.036-1.138,8.749,8.749,0,0,0,3.161-2.993,12.714,12.714,0,0,0,1.645-4.215,23.675,23.675,0,0,0,.484-4.763V547.374h2.15v15.047a24.584,24.584,0,0,1-.654,5.732,13.813,13.813,0,0,1-2.128,4.826,10.563,10.563,0,0,1-3.836,3.309,14.511,14.511,0,0,1-11.8-.064,10.671,10.671,0,0,1-3.857-3.414,13.9,13.9,0,0,1-2.065-4.826,25.093,25.093,0,0,1-.611-5.564V547.374h2.15v15.047a24.03,24.03,0,0,0,.484,4.847,11.979,11.979,0,0,0,1.686,4.194,9.054,9.054,0,0,0,3.183,2.95A10.018,10.018,0,0,0,555.732,575.529Z" transform="translate(-394.284 -547.374)" fill="#738c91"/>
        <path id="Path_6" data-name="Path 6" d="M602.615,549.313h-10.96V577.3h-2.149V549.313H578.548v-1.939h24.067Z" transform="translate(-400.409 -547.374)" fill="#738c91"/>
        <path id="Path_7" data-name="Path 7" d="M636.46,547.374V577.3h-2.15V562.969H615.428V577.3h-2.15V547.374h2.15V561.03H634.31V547.374Z" transform="translate(-406.437 -547.374)" fill="#738c91"/>
        <path id="Path_8" data-name="Path 8" d="M452.5,575.48v1.939H435.867V547.493h16.251v1.939h-14.1v11.76h11.909v1.855H438.017V575.48Z" transform="translate(-375.646 -547.395)" fill="#738c91"/>
      </g>
    </g>
    <g id="BENEATH" transform="translate(387.326 571.341)">
      <g id="Group_2" data-name="Group 2" transform="translate(0 0)">
        <path id="Path_9" data-name="Path 9" d="M420.149,603.663a7.391,7.391,0,0,1-.632,3.056,7.813,7.813,0,0,1-4.3,4.109,8.311,8.311,0,0,1-3.12.59H398.105V581.493h13.951a5.906,5.906,0,0,1,2.824.675,7.039,7.039,0,0,1,2.15,1.749,8.017,8.017,0,0,1,1.37,2.445,8.249,8.249,0,0,1,.485,2.761,7.957,7.957,0,0,1-1.139,4.172,6.764,6.764,0,0,1-3.161,2.782,7.439,7.439,0,0,1,4.068,2.845A7.938,7.938,0,0,1,420.149,603.663Zm-19.893-20.231V595.4h10.958a4.921,4.921,0,0,0,2.234-.506,5.829,5.829,0,0,0,1.75-1.328,6.354,6.354,0,0,0,1.58-4.151,6.526,6.526,0,0,0-.4-2.3,6.343,6.343,0,0,0-1.1-1.9,5.205,5.205,0,0,0-1.664-1.307,4.744,4.744,0,0,0-2.15-.485ZM418,603.368a6.561,6.561,0,0,0-1.6-4.279,5.713,5.713,0,0,0-1.791-1.369,4.966,4.966,0,0,0-2.212-.5H400.255V609.48H412.1a5.425,5.425,0,0,0,2.34-.506,5.8,5.8,0,0,0,1.855-1.369,6.913,6.913,0,0,0,1.243-1.96A5.785,5.785,0,0,0,418,603.368Z" transform="translate(-398.105 -581.493)" fill="#738c91"/>
        <path id="Path_10" data-name="Path 10" d="M452.5,609.48v1.939H435.867V581.493h16.251v1.939h-14.1v11.76h11.909v1.855H438.017V609.48Z" transform="translate(-404.659 -581.493)" fill="#738c91"/>
        <path id="Path_11" data-name="Path 11" d="M468.229,585.539v25.879h-2.15V581.493h2.15l17.178,25.517V581.493h2.15v29.926h-1.981Z" transform="translate(-409.902 -581.493)" fill="#738c91"/>
        <path id="Path_12" data-name="Path 12" d="M530.437,609.48v1.939H510.5V581.493h19.557v1.939H512.651v11.76h15.215v1.855H512.651V609.48Z" transform="translate(-417.612 -581.493)" fill="#738c91"/>
        <path id="Path_13" data-name="Path 13" d="M554.413,581.493h1.855l12.645,29.926h-2.276l-4.173-9.862H548.175L544,611.419h-2.318Zm7.46,18.293-6.533-15.679-6.659,15.679Z" transform="translate(-423.024 -581.493)" fill="#738c91"/>
        <path id="Path_14" data-name="Path 14" d="M602.38,583.432H591.42v27.987h-2.15V583.432H578.312v-1.939H602.38Z" transform="translate(-429.381 -581.493)" fill="#738c91"/>
        <path id="Path_15" data-name="Path 15" d="M636.566,581.493v29.926h-2.15V597.088H615.534v14.331h-2.15V581.493h2.15V595.15h18.883V581.493Z" transform="translate(-435.467 -581.493)" fill="#738c91"/>
      </g>
    </g>
    <path id="Path_16" data-name="Path 16" d="M600.109,583.432H336v-1.939H613.218v1.939H600.109Z" transform="translate(0 -10.152)" fill="#738c91"/>
    <rect id="Rectangle_2" data-name="Rectangle 2" width="276.859" height="100" transform="translate(336 523)" fill="none" stroke="#738c91" stroke-width="2"/>
  </g>
</svg>
