<svg xmlns="http://www.w3.org/2000/svg" width="23.209" height="22.334" viewBox="0 0 23.209 22.334">
  <g id="menu" transform="translate(0 -1.75)">
    <g id="Group_80" data-name="Group 80" transform="translate(0 1.75)">
      <path id="Path_28" data-name="Path 28" d="M22.459,1.75H.75A.751.751,0,0,0,0,2.5V5.834a.751.751,0,0,0,.75.75H22.459a.751.751,0,0,0,.75-.75V2.5A.751.751,0,0,0,22.459,1.75Z" transform="translate(0 -1.75)" fill="#448e9d"/>
      <path id="Path_29" data-name="Path 29" d="M22.459,36.75H.75A.751.751,0,0,0,0,37.5v3.334a.751.751,0,0,0,.75.75H22.459a.751.751,0,0,0,.75-.75V37.5A.751.751,0,0,0,22.459,36.75Z" transform="translate(0 -28)" fill="#448e9d"/>
      <path id="Path_30" data-name="Path 30" d="M22.459,71.75H.75A.751.751,0,0,0,0,72.5v3.334a.751.751,0,0,0,.75.75H22.459a.751.751,0,0,0,.75-.75V72.5A.75.75,0,0,0,22.459,71.75Z" transform="translate(0 -54.25)" fill="#448e9d"/>
    </g>
  </g>
</svg>
