<svg xmlns="http://www.w3.org/2000/svg" width="20.583" height="12.342" viewBox="0 0 20.583 12.342">
  <g id="next-track" transform="translate(0 -1.018)">
    <g id="Group_2" data-name="Group 2" transform="translate(0 1.018)">
      <path id="Path_1" data-name="Path 1" d="M9.852,7.64,1.167,2.185C.525,1.764,0,2.074,0,2.874V13.463c0,.8.525,1.109,1.167.688L9.852,8.7a.752.752,0,0,0,.313-.528A.752.752,0,0,0,9.852,7.64Z" transform="translate(0 -1.997)" fill="#434343"/>
      <path id="Path_15" data-name="Path 15" d="M9.852,7.64,1.167,2.185C.525,1.764,0,2.074,0,2.874V13.463c0,.8.525,1.109,1.167.688L9.852,8.7a.752.752,0,0,0,.313-.528A.752.752,0,0,0,9.852,7.64Z" transform="translate(10.418 -1.997)" fill="#434343"/>
    </g>
  </g>
</svg>
