<svg xmlns="http://www.w3.org/2000/svg" width="20.583" height="12.342" viewBox="0 0 20.583 12.342">
  <g id="next-track" transform="translate(0 0)">
    <g id="Group_2" data-name="Group 2" transform="translate(0 0)">
      <path id="Path_1" data-name="Path 1" d="M.313,7.64,9,2.185c.642-.421,1.167-.111,1.167.688V13.463c0,.8-.525,1.109-1.167.688L.313,8.7A.752.752,0,0,1,0,8.168.752.752,0,0,1,.313,7.64Z" transform="translate(10.418 -1.997)" fill="#434343"/>
      <path id="Path_15" data-name="Path 15" d="M.313,7.64,9,2.185c.642-.421,1.167-.111,1.167.688V13.463c0,.8-.525,1.109-1.167.688L.313,8.7A.752.752,0,0,1,0,8.168.752.752,0,0,1,.313,7.64Z" transform="translate(0 -1.997)" fill="#434343"/>
    </g>
  </g>
</svg>
