<svg id="twitter-logo" xmlns="http://www.w3.org/2000/svg" width="33" height="33" viewBox="0 0 33 33">
  <g id="Group_29" data-name="Group 29">
    <g id="Group_28" data-name="Group 28">
      <path id="Path_23" data-name="Path 23" d="M26.813,0H6.187A6.187,6.187,0,0,0,0,6.187V26.813A6.187,6.187,0,0,0,6.187,33H26.813A6.187,6.187,0,0,0,33,26.813V6.187A6.187,6.187,0,0,0,26.813,0Zm-2.1,12.8.012.526A11.553,11.553,0,0,1,6.936,23.055a8.354,8.354,0,0,0,.969.058,8.152,8.152,0,0,0,5.045-1.739,4.069,4.069,0,0,1-3.8-2.821,4.239,4.239,0,0,0,.765.07,4.062,4.062,0,0,0,1.07-.14A4.067,4.067,0,0,1,7.732,14.5v-.052a4.057,4.057,0,0,0,1.84.509A4.069,4.069,0,0,1,8.314,9.535a11.529,11.529,0,0,0,8.374,4.245,4.066,4.066,0,0,1,6.924-3.7,8.226,8.226,0,0,0,2.58-.986,4.073,4.073,0,0,1-1.786,2.248,8.144,8.144,0,0,0,2.333-.639A8.212,8.212,0,0,1,24.709,12.8Z" fill="#44423c"/>
    </g>
  </g>
</svg>
