<svg xmlns="http://www.w3.org/2000/svg" width="46.963" height="33.051" viewBox="0 0 46.963 33.051">
  <g id="youtube" transform="translate(0 -45.917)">
    <path id="XMLID_823_" d="M45.133,48.754c-1.7-2.015-4.825-2.837-10.8-2.837h-21.7c-6.114,0-9.3.875-10.986,3.02C0,51.029,0,54.111,0,58.377v8.131c0,8.264,1.954,12.46,12.632,12.46h21.7c5.184,0,8.056-.725,9.914-2.5,1.906-1.824,2.719-4.8,2.719-9.956V58.377C46.963,53.879,46.836,50.778,45.133,48.754ZM30.15,63.565,20.3,68.714a1.515,1.515,0,0,1-2.217-1.343V57.106a1.515,1.515,0,0,1,2.213-1.344l9.853,5.116a1.515,1.515,0,0,1,0,2.687Z" transform="translate(0 0)" fill="#44423c"/>
  </g>
</svg>
